<svg width="32" height="32" viewBox="0 0 32 32" fill="none" xmlns="http://www.w3.org/2000/svg">
<g id="favicon">
<path id="logonu-letter-u" d="M29 10.6336V20.5849C29 21.4048 27.9905 22.7839 26.7478 22.7839H25.5049V24.5729C25.5049 24.9083 24.8107 26.1269 22.8641 25.9892C19.1748 25.7283 17 23.2665 17 21.2931V10.6336C17 10.2236 17.1942 10 17.6602 10H19.7961C20.2621 10 20.4563 10.2236 20.4563 10.6336V20.4731C20.4563 21.5882 21.6053 22.7839 22.8641 22.7839H25.5049V10.6336C25.5049 10.1491 25.699 10 26.1651 10H28.3398C28.7282 10 29 10.1491 29 10.6336Z" fill="url(#paint0_linear_5825_24065)"/>
<path id="logonu-letter-n" d="M3 22.3268V11.7536C3 10.8824 4.00946 9.41712 5.25219 9.41712H6.49515V7.51631C6.49515 7.1599 7.18931 5.86521 9.13592 6.01147C12.8252 6.28867 15 8.9043 15 11.0011V22.3268C15 22.7624 14.8058 23 14.3398 23H12.2039C11.7379 23 11.5437 22.7624 11.5437 22.3268V11.8723C11.5437 10.6875 10.3947 9.41712 9.13592 9.41712H6.49515V22.3268C6.49514 22.8416 6.30096 23 5.83494 23H3.66018C3.27184 23 3 22.8416 3 22.3268Z" fill="url(#paint1_linear_5825_24065)"/>
</g>
<defs>
<linearGradient id="paint0_linear_5825_24065" x1="18.86" y1="23.84" x2="29.3347" y2="14.7846" gradientUnits="userSpaceOnUse">
<stop stop-color="#A950C4"/>
<stop offset="1" stop-color="#82269E"/>
</linearGradient>
<linearGradient id="paint1_linear_5825_24065" x1="13.14" y1="8.295" x2="2.12742" y2="17.2554" gradientUnits="userSpaceOnUse">
<stop stop-color="#A950C4"/>
<stop offset="1" stop-color="#82269E"/>
</linearGradient>
</defs>
</svg>
