<svg width="722" height="458" viewBox="0 0 722 458" fill="none" xmlns="http://www.w3.org/2000/svg">
<g id="nubank-verse" clip-path="url(#clip0_609_105)">
<g id="Rectangle 967" filter="url(#filter0_i_609_105)">
<rect width="722" height="458" rx="25" fill="url(#paint0_linear_609_105)"/>
</g>
<rect id="Rectangle 405" y="33" width="722" height="107.344" fill="#D6D6D6"/>
<rect id="Rectangle 406" x="24" y="226" width="157.438" height="103.766" rx="51.8828" fill="url(#paint1_linear_609_105)"/>
<text id="5032 9334 3764 9846" fill="#FEFBFF" xml:space="preserve" style="white-space: pre" font-family="Sora" font-size="36" letter-spacing="0.03em"><tspan x="24" y="391.24">5032 9334 3764 9846</tspan></text>
<text id="gold" fill="#F7F2FA" xml:space="preserve" style="white-space: pre" font-family="Sora" font-size="36" font-weight="600" letter-spacing="0em"><tspan x="64" y="195.24">gold</tspan></text>
<text id="02/17" fill="#FEFBFF" xml:space="preserve" style="white-space: pre" font-family="Sora" font-size="18" letter-spacing="0em"><tspan x="66" y="431.62">02/17</tspan></text>
<text id="02/20" fill="#FEFBFF" xml:space="preserve" style="white-space: pre" font-family="Sora" font-size="18" letter-spacing="0em"><tspan x="168" y="431.62">02/20</tspan></text>
<text id="123" fill="#FEFBFF" xml:space="preserve" style="white-space: pre" font-family="Sora" font-size="18" letter-spacing="0em"><tspan x="283" y="431.62">123</tspan></text>
<g id="Group 300">
<text id="cirrus." fill="#FBF9FC" xml:space="preserve" style="white-space: pre" font-family="Sora" font-size="13" font-weight="600" letter-spacing="0em"><tspan x="624" y="434.42">cirrus.</tspan></text>
<circle id="Ellipse 7" cx="626" cy="389" r="31" fill="#0167B2"/>
<circle id="Ellipse 8" cx="664" cy="389" r="31" fill="#02A1E2"/>
<path id="Intersect" fill-rule="evenodd" clip-rule="evenodd" d="M644.872 413.401C652.228 407.739 656.968 398.846 656.968 388.845C656.968 378.845 652.228 369.952 644.872 364.29C637.515 369.952 632.775 378.845 632.775 388.845C632.775 398.846 637.515 407.739 644.872 413.401Z" fill="#207CBD"/>
</g>
<text id="member since" fill="#FEFBFF" xml:space="preserve" style="white-space: pre" font-family="Source Sans Pro" font-size="6" letter-spacing="0.1em"><tspan x="26" y="422.133">MEMBER&#10;</tspan><tspan x="26" y="430.133">SINCE</tspan></text>
<text id="valid thru" fill="#FEFBFF" xml:space="preserve" style="white-space: pre" font-family="Source Sans Pro" font-size="6" letter-spacing="0.1em"><tspan x="138" y="422.133">VALID&#10;</tspan><tspan x="138" y="430.133">THRU</tspan></text>
<text id="security code" fill="#FEFBFF" xml:space="preserve" style="white-space: pre" font-family="Source Sans Pro" font-size="6" letter-spacing="0.1em"><tspan x="240" y="422.133">SECURITY&#10;</tspan><tspan x="240" y="430.133">CODE</tspan></text>
<path id="Vector" d="M322 188C322 188.53 321.789 189.039 321.414 189.414C321.039 189.789 320.53 190 320 190H308L304 194V178C304 177.47 304.211 176.961 304.586 176.586C304.961 176.211 305.47 176 306 176H320C320.53 176 321.039 176.211 321.414 176.586C321.789 176.961 322 177.47 322 178V188Z" stroke="#FEFBFF" stroke-linecap="round" stroke-linejoin="round"/>
<g id="Group 51">
<path id="Vector_2" d="M313 236C318.523 236 323 231.523 323 226C323 220.477 318.523 216 313 216C307.477 216 303 220.477 303 226C303 231.523 307.477 236 313 236Z" stroke="#FEFBFF" stroke-linecap="round" stroke-linejoin="round"/>
<path id="Vector_3" d="M310.09 223C310.325 222.332 310.789 221.768 311.4 221.409C312.011 221.05 312.729 220.919 313.427 221.039C314.125 221.159 314.759 221.522 315.215 222.064C315.671 222.606 315.921 223.292 315.92 224C315.92 226 312.92 227 312.92 227" stroke="#FEFBFF" stroke-linecap="round" stroke-linejoin="round"/>
<path id="Vector_4" d="M313 231H313.01" stroke="#FEFBFF" stroke-linecap="round" stroke-linejoin="round"/>
</g>
<text id="Est&#195;&#161; com d&#195;&#186;vidas? Nosso app pode te ajudar." fill="#FEFBFF" xml:space="preserve" style="white-space: pre" font-family="Source Sans Pro" font-size="9" letter-spacing="0em"><tspan x="335" y="180.2">Est&#xe1; com d&#xfa;vidas?&#10;</tspan><tspan x="335" y="194.2">Nosso app pode te ajudar.</tspan></text>
<text id="Fale com a gente: 0800 591 2117" fill="#FEFBFF" xml:space="preserve" style="white-space: pre" font-family="Source Sans Pro" font-size="9" letter-spacing="0em"><tspan x="335" y="222.2">Fale com a gente:&#10;</tspan><tspan x="335" y="236.2">0800 591 2117</tspan></text>
<circle id="Ellipse 167" cx="125.5" cy="278.5" r="31.5" fill="#D9D9D9"/>
<path id="Subtract" fill-rule="evenodd" clip-rule="evenodd" d="M75.8828 226C47.2287 226 24 249.229 24 277.883C24 306.537 47.2287 329.766 75.8828 329.766H91.19C123.446 289.941 126.039 267.227 91 226H75.8828Z" fill="url(#paint2_linear_609_105)"/>
</g>
<defs>
<filter id="filter0_i_609_105" x="0" y="0" width="725" height="461" filterUnits="userSpaceOnUse" color-interpolation-filters="sRGB">
<feFlood flood-opacity="0" result="BackgroundImageFix"/>
<feBlend mode="normal" in="SourceGraphic" in2="BackgroundImageFix" result="shape"/>
<feColorMatrix in="SourceAlpha" type="matrix" values="0 0 0 0 0 0 0 0 0 0 0 0 0 0 0 0 0 0 127 0" result="hardAlpha"/>
<feOffset dx="3" dy="3"/>
<feGaussianBlur stdDeviation="3"/>
<feComposite in2="hardAlpha" operator="arithmetic" k2="-1" k3="1"/>
<feColorMatrix type="matrix" values="0 0 0 0 1 0 0 0 0 1 0 0 0 0 1 0 0 0 0.25 0"/>
<feBlend mode="normal" in2="shape" result="effect1_innerShadow_609_105"/>
</filter>
<linearGradient id="paint0_linear_609_105" x1="610.09" y1="61.83" x2="354.096" y2="526.995" gradientUnits="userSpaceOnUse">
<stop stop-color="#A950C4"/>
<stop offset="1" stop-color="#82269E"/>
</linearGradient>
<linearGradient id="paint1_linear_609_105" x1="107" y1="330" x2="150.5" y2="232" gradientUnits="userSpaceOnUse">
<stop stop-color="#F6F3F7"/>
<stop offset="1" stop-color="#D6D6D6"/>
</linearGradient>
<linearGradient id="paint2_linear_609_105" x1="95.5" y1="231" x2="47" y2="317.5" gradientUnits="userSpaceOnUse">
<stop stop-color="#F5F5F5"/>
<stop offset="1" stop-color="#D6D6D6"/>
</linearGradient>
<clipPath id="clip0_609_105">
<rect width="722" height="458" fill="white"/>
</clipPath>
</defs>
</svg>
